<svg id="Isolation_Mode" data-name="Isolation Mode"
    xmlns="http://www.w3.org/2000/svg" viewBox="0 0 48 48">
    <defs>
        <style>.cls-1{fill:#0080a9;}.cls-2{fill:#fff;}.cls-3{fill:#0080a9;}</style>
    </defs>
    <title>icon-youtube</title>
    <path class="cls-1" d="M48,24A24,24,0,1,1,24,0,24,24,0,0,1,48,24Z"/>
    <path class="cls-2" d="M32,29.19a.58.58,0,0,0-.51.21,1.15,1.15,0,0,0-.16.7v.79h1.34V30.1a1.22,1.22,0,0,0-.16-.7A.58.58,0,0,0,32,29.19Z"/>
    <path class="cls-2" d="M26.79,29.16a.72.72,0,0,0-.32.08,1,1,0,0,0-.31.24v4.83a1.26,1.26,0,0,0,.36.28.86.86,0,0,0,.36.08.48.48,0,0,0,.41-.16.86.86,0,0,0,.13-.54V30a1,1,0,0,0-.15-.59A.59.59,0,0,0,26.79,29.16Z"/>
    <path class="cls-2" d="M33.52,23h-19A5.8,5.8,0,0,0,9,28.89V33.4A5.54,5.54,0,0,0,14.48,39h19A5.54,5.54,0,0,0,39,33.4V28.89A5.8,5.8,0,0,0,33.52,23Zm-15,3.8H16.71v9H15v-9H13.23V25.27h5.25Zm5,9H22v-.85a3.28,3.28,0,0,1-.87.71,1.79,1.79,0,0,1-.88.25.92.92,0,0,1-.8-.35,1.73,1.73,0,0,1-.26-1V28h1.51v6a.69.69,0,0,0,.1.4.37.37,0,0,0,.31.12.82.82,0,0,0,.42-.16,2.06,2.06,0,0,0,.47-.42V28h1.52ZM29,34.18a2,2,0,0,1-.36,1.27,1.26,1.26,0,0,1-1,.44,1.88,1.88,0,0,1-.8-.17,2,2,0,0,1-.64-.53v.6H24.62V25.27h1.54v3.38a2.27,2.27,0,0,1,.65-.53,1.39,1.39,0,0,1,.7-.19,1.28,1.28,0,0,1,1.1.5A2.37,2.37,0,0,1,29,29.88Zm5.26-2.09h-2.9v1.47a1.74,1.74,0,0,0,.15.85.55.55,0,0,0,.51.23.61.61,0,0,0,.53-.2,1.67,1.67,0,0,0,.15-.88V33.2h1.56v.4a2.53,2.53,0,0,1-.57,1.8A2.24,2.24,0,0,1,32,36a2.07,2.07,0,0,1-1.61-.64,2.5,2.5,0,0,1-.59-1.76V30.11a2.2,2.2,0,0,1,.65-1.64,2.24,2.24,0,0,1,1.66-.64,2.1,2.1,0,0,1,1.6.59,2.38,2.38,0,0,1,.56,1.69Z"/>
    <polygon class="cls-2" points="14.68 9 16.97 16 16.97 20.59 18.9 20.59 18.9 15.78 21.14 9 19.18 9 17.99 13.63 17.87 13.63 16.62 9 14.68 9"/>
    <path class="cls-2" d="M22,12.41A2,2,0,0,0,21.28,14v4.43A2.27,2.27,0,0,0,22,20.16a2.48,2.48,0,0,0,1.79.65,2.54,2.54,0,0,0,1.83-.63,2.25,2.25,0,0,0,.66-1.72V14.05a2.07,2.07,0,0,0-.67-1.6,2.44,2.44,0,0,0-1.74-.62A2.78,2.78,0,0,0,22,12.41Zm2.53,1.52v4.66a.73.73,0,0,1-.2.54.77.77,0,0,1-.55.2.67.67,0,0,1-.53-.2.73.73,0,0,1-.18-.54V13.93a.59.59,0,0,1,.2-.45.72.72,0,0,1,.51-.17.8.8,0,0,1,.54.17A.57.57,0,0,1,24.49,13.93Z"/>
    <path class="cls-2" d="M32.5,20.59V12H30.79v6.49a2.28,2.28,0,0,1-.53.46,1,1,0,0,1-.48.18.38.38,0,0,1-.34-.14.67.67,0,0,1-.11-.43V12H27.62v7.15a1.81,1.81,0,0,0,.3,1.14,1.06,1.06,0,0,0,.89.39,2.13,2.13,0,0,0,1-.28,3.74,3.74,0,0,0,1-.79v.94Z"/>
    <path class="cls-1" d="M48,24A24,24,0,1,1,24,0,24,24,0,0,1,48,24Z"/>
    <path class="cls-2" d="M32,29.19a.58.58,0,0,0-.51.21,1.15,1.15,0,0,0-.16.7v.79h1.34V30.1a1.22,1.22,0,0,0-.16-.7A.58.58,0,0,0,32,29.19Z"/>
    <path class="cls-2" d="M26.79,29.16a.72.72,0,0,0-.32.08,1,1,0,0,0-.31.24v4.83a1.26,1.26,0,0,0,.36.28.86.86,0,0,0,.36.08.48.48,0,0,0,.41-.16.86.86,0,0,0,.13-.54V30a1,1,0,0,0-.15-.59A.59.59,0,0,0,26.79,29.16Z"/>
    <path class="cls-2" d="M33.52,23h-19A5.8,5.8,0,0,0,9,28.89V33.4A5.54,5.54,0,0,0,14.48,39h19A5.54,5.54,0,0,0,39,33.4V28.89A5.8,5.8,0,0,0,33.52,23Zm-15,3.8H16.71v9H15v-9H13.23V25.27h5.25Zm5,9H22v-.85a3.28,3.28,0,0,1-.87.71,1.79,1.79,0,0,1-.88.25.92.92,0,0,1-.8-.35,1.73,1.73,0,0,1-.26-1V28h1.51v6a.69.69,0,0,0,.1.4.37.37,0,0,0,.31.12.82.82,0,0,0,.42-.16,2.06,2.06,0,0,0,.47-.42V28h1.52ZM29,34.18a2,2,0,0,1-.36,1.27,1.26,1.26,0,0,1-1,.44,1.88,1.88,0,0,1-.8-.17,2,2,0,0,1-.64-.53v.6H24.62V25.27h1.54v3.38a2.27,2.27,0,0,1,.65-.53,1.39,1.39,0,0,1,.7-.19,1.28,1.28,0,0,1,1.1.5A2.37,2.37,0,0,1,29,29.88Zm5.26-2.09h-2.9v1.47a1.74,1.74,0,0,0,.15.85.55.55,0,0,0,.51.23.61.61,0,0,0,.53-.2,1.67,1.67,0,0,0,.15-.88V33.2h1.56v.4a2.53,2.53,0,0,1-.57,1.8A2.24,2.24,0,0,1,32,36a2.07,2.07,0,0,1-1.61-.64,2.5,2.5,0,0,1-.59-1.76V30.11a2.2,2.2,0,0,1,.65-1.64,2.24,2.24,0,0,1,1.66-.64,2.1,2.1,0,0,1,1.6.59,2.38,2.38,0,0,1,.56,1.69Z"/>
    <polygon class="cls-2" points="14.68 9 16.97 16 16.97 20.59 18.9 20.59 18.9 15.78 21.14 9 19.18 9 17.99 13.63 17.87 13.63 16.62 9 14.68 9"/>
    <path class="cls-2" d="M22,12.41A2,2,0,0,0,21.28,14v4.43A2.27,2.27,0,0,0,22,20.16a2.48,2.48,0,0,0,1.79.65,2.54,2.54,0,0,0,1.83-.63,2.25,2.25,0,0,0,.66-1.72V14.05a2.07,2.07,0,0,0-.67-1.6,2.44,2.44,0,0,0-1.74-.62A2.78,2.78,0,0,0,22,12.41Zm2.53,1.52v4.66a.73.73,0,0,1-.2.54.77.77,0,0,1-.55.2.67.67,0,0,1-.53-.2.73.73,0,0,1-.18-.54V13.93a.59.59,0,0,1,.2-.45.72.72,0,0,1,.51-.17.8.8,0,0,1,.54.17A.57.57,0,0,1,24.49,13.93Z"/>
    <path class="cls-2" d="M32.5,20.59V12H30.79v6.49a2.28,2.28,0,0,1-.53.46,1,1,0,0,1-.48.18.38.38,0,0,1-.34-.14.67.67,0,0,1-.11-.43V12H27.62v7.15a1.81,1.81,0,0,0,.3,1.14,1.06,1.06,0,0,0,.89.39,2.13,2.13,0,0,0,1-.28,3.74,3.74,0,0,0,1-.79v.94Z"/>
    <path class="cls-3" d="M48,24A24,24,0,1,1,24,0,24,24,0,0,1,48,24Z"/>
    <path class="cls-2" d="M32,29.19a.58.58,0,0,0-.51.21,1.15,1.15,0,0,0-.16.7v.79h1.34V30.1a1.22,1.22,0,0,0-.16-.7A.58.58,0,0,0,32,29.19Z"/>
    <path class="cls-2" d="M26.79,29.16a.72.72,0,0,0-.32.08,1,1,0,0,0-.31.24v4.83a1.26,1.26,0,0,0,.36.28.86.86,0,0,0,.36.08.48.48,0,0,0,.41-.16.86.86,0,0,0,.13-.54V30a1,1,0,0,0-.15-.59A.59.59,0,0,0,26.79,29.16Z"/>
    <path class="cls-2" d="M33.52,23h-19A5.8,5.8,0,0,0,9,28.89V33.4A5.54,5.54,0,0,0,14.48,39h19A5.54,5.54,0,0,0,39,33.4V28.89A5.8,5.8,0,0,0,33.52,23Zm-15,3.8H16.71v9H15v-9H13.23V25.27h5.25Zm5,9H22v-.85a3.28,3.28,0,0,1-.87.71,1.79,1.79,0,0,1-.88.25.92.92,0,0,1-.8-.35,1.73,1.73,0,0,1-.26-1V28h1.51v6a.69.69,0,0,0,.1.4.37.37,0,0,0,.31.12.82.82,0,0,0,.42-.16,2.06,2.06,0,0,0,.47-.42V28h1.52ZM29,34.18a2,2,0,0,1-.36,1.27,1.26,1.26,0,0,1-1,.44,1.88,1.88,0,0,1-.8-.17,2,2,0,0,1-.64-.53v.6H24.62V25.27h1.54v3.38a2.27,2.27,0,0,1,.65-.53,1.39,1.39,0,0,1,.7-.19,1.28,1.28,0,0,1,1.1.5A2.37,2.37,0,0,1,29,29.88Zm5.26-2.09h-2.9v1.47a1.74,1.74,0,0,0,.15.85.55.55,0,0,0,.51.23.61.61,0,0,0,.53-.2,1.67,1.67,0,0,0,.15-.88V33.2h1.56v.4a2.53,2.53,0,0,1-.57,1.8A2.24,2.24,0,0,1,32,36a2.07,2.07,0,0,1-1.61-.64,2.5,2.5,0,0,1-.59-1.76V30.11a2.2,2.2,0,0,1,.65-1.64,2.24,2.24,0,0,1,1.66-.64,2.1,2.1,0,0,1,1.6.59,2.38,2.38,0,0,1,.56,1.69Z"/>
    <polygon class="cls-2" points="14.68 9 16.97 16 16.97 20.59 18.9 20.59 18.9 15.78 21.14 9 19.18 9 17.99 13.63 17.87 13.63 16.62 9 14.68 9"/>
    <path class="cls-2" d="M22,12.41A2,2,0,0,0,21.28,14v4.43A2.27,2.27,0,0,0,22,20.16a2.48,2.48,0,0,0,1.79.65,2.54,2.54,0,0,0,1.83-.63,2.25,2.25,0,0,0,.66-1.72V14.05a2.07,2.07,0,0,0-.67-1.6,2.44,2.44,0,0,0-1.74-.62A2.78,2.78,0,0,0,22,12.41Zm2.53,1.52v4.66a.73.73,0,0,1-.2.54.77.77,0,0,1-.55.2.67.67,0,0,1-.53-.2.73.73,0,0,1-.18-.54V13.93a.59.59,0,0,1,.2-.45.72.72,0,0,1,.51-.17.8.8,0,0,1,.54.17A.57.57,0,0,1,24.49,13.93Z"/>
    <path class="cls-2" d="M32.5,20.59V12H30.79v6.49a2.28,2.28,0,0,1-.53.46,1,1,0,0,1-.48.18.38.38,0,0,1-.34-.14.67.67,0,0,1-.11-.43V12H27.62v7.15a1.81,1.81,0,0,0,.3,1.14,1.06,1.06,0,0,0,.89.39,2.13,2.13,0,0,0,1-.28,3.74,3.74,0,0,0,1-.79v.94Z"/>
</svg>